<svg xmlns="http://www.w3.org/2000/svg" width="720" height="900" viewBox="0 0 720 900">
<rect width="720" height="900" fill="#071222"/>
<rect x="36" y="36" width="648" height="828" rx="18" fill="#EEF7F8" stroke="#C2843C" stroke-width="8"/>
<text x="360" y="88" text-anchor="middle" font-family="Arial, Helvetica, sans-serif" font-size="44" font-weight="800" fill="#071222">MENU</text>
<rect x="58" y="100" width="604" height="320" rx="12" fill="#ffffff" stroke="#1FB3B8" stroke-width="4"/><rect x="70" y="112" width="16" height="16" rx="2" fill="#071222"/><rect x="92" y="112" width="16" height="16" rx="2" fill="#071222"/><rect x="158" y="112" width="16" height="16" rx="2" fill="#071222"/><rect x="246" y="112" width="16" height="16" rx="2" fill="#071222"/><rect x="290" y="112" width="16" height="16" rx="2" fill="#071222"/><rect x="312" y="112" width="16" height="16" rx="2" fill="#071222"/><rect x="70" y="134" width="16" height="16" rx="2" fill="#071222"/><rect x="92" y="134" width="16" height="16" rx="2" fill="#071222"/><rect x="290" y="134" width="16" height="16" rx="2" fill="#071222"/><rect x="312" y="134" width="16" height="16" rx="2" fill="#071222"/><rect x="114" y="156" width="16" height="16" rx="2" fill="#071222"/><rect x="202" y="156" width="16" height="16" rx="2" fill="#071222"/><rect x="290" y="156" width="16" height="16" rx="2" fill="#071222"/><rect x="70" y="200" width="16" height="16" rx="2" fill="#071222"/><rect x="158" y="200" width="16" height="16" rx="2" fill="#071222"/><rect x="246" y="200" width="16" height="16" rx="2" fill="#071222"/><rect x="114" y="244" width="16" height="16" rx="2" fill="#071222"/><rect x="202" y="244" width="16" height="16" rx="2" fill="#071222"/><rect x="290" y="244" width="16" height="16" rx="2" fill="#071222"/><rect x="70" y="288" width="16" height="16" rx="2" fill="#071222"/><rect x="158" y="288" width="16" height="16" rx="2" fill="#071222"/><rect x="246" y="288" width="16" height="16" rx="2" fill="#071222"/><rect x="70" y="332" width="16" height="16" rx="2" fill="#071222"/><rect x="92" y="332" width="16" height="16" rx="2" fill="#071222"/><rect x="114" y="332" width="16" height="16" rx="2" fill="#071222"/><rect x="202" y="332" width="16" height="16" rx="2" fill="#071222"/><rect x="290" y="332" width="16" height="16" rx="2" fill="#071222"/><rect x="312" y="332" width="16" height="16" rx="2" fill="#071222"/><rect x="70" y="354" width="16" height="16" rx="2" fill="#071222"/><rect x="92" y="354" width="16" height="16" rx="2" fill="#071222"/><rect x="290" y="354" width="16" height="16" rx="2" fill="#071222"/><rect x="312" y="354" width="16" height="16" rx="2" fill="#071222"/>
<text x="360" y="500" text-anchor="middle" font-family="Arial, Helvetica, sans-serif" font-size="42" font-weight="800" fill="#071222">PENDING OWNER INPUT</text>
<text x="360" y="558" text-anchor="middle" font-family="Arial, Helvetica, sans-serif" font-size="28" font-weight="700" fill="#14777F">Decorative QR sample</text>
<text x="360" y="710" text-anchor="middle" font-family="Arial, Helvetica, sans-serif" font-size="34" font-weight="800" fill="#071222">FORT YORK CANNABIS</text>
<text x="360" y="762" text-anchor="middle" font-family="Arial, Helvetica, sans-serif" font-size="24" font-weight="700" fill="#C2843C">38 Fort York Blvd</text>
</svg>